<svg width="72" height="55" viewBox="0 0 72 55" fill="none" xmlns="http://www.w3.org/2000/svg">
<mask id="path-1-outside-1_1_3" maskUnits="userSpaceOnUse" x="0" y="-1" width="72" height="56" fill="black">
<rect fill="white" y="-1" width="72" height="56"/>
<path d="M21.9992 52.896C19.0694 52.896 16.4667 52.6116 14.1912 52.0427C11.9441 51.4738 10.0952 50.7058 8.6445 49.7387C7.22228 48.7716 6.04183 47.5769 5.10317 46.1547C4.19294 44.704 3.55294 43.1822 3.18317 41.5893C2.81339 39.9964 2.6285 38.2329 2.6285 36.2987V1.99467H17.8178V34.3787C17.8178 37.9911 18.1876 40.48 18.9272 41.8453C19.6952 43.1822 20.8045 43.8507 22.2552 43.8507C23.0516 43.8507 23.7485 43.7227 24.3458 43.4667C24.9432 43.1822 25.4978 42.7129 26.0098 42.0587C26.5218 41.376 26.9058 40.4089 27.1618 39.1573C27.4463 37.8773 27.5885 36.3271 27.5885 34.5067V1.99467H41.0712V36.5547C41.0712 38.4604 40.9005 40.1813 40.5592 41.7173C40.2463 43.2533 39.6489 44.7467 38.7672 46.1973C37.9138 47.6196 36.7761 48.8142 35.3538 49.7813C33.9601 50.72 32.1254 51.4738 29.8498 52.0427C27.6027 52.6116 24.9858 52.896 21.9992 52.896Z"/>
<path d="M55.6282 52.8107C53.5517 52.8107 51.6744 52.5404 49.9962 52C48.3179 51.4311 47.1802 50.8622 46.5828 50.2933L46.4548 41.4613C47.3935 41.9733 48.1473 42.3147 48.7162 42.4853C49.2851 42.656 50.0246 42.7413 50.9348 42.7413C52.4708 42.7413 53.6797 42.2862 54.5615 41.376C55.4717 40.4658 55.9268 38.9298 55.9268 36.768V5.74933L53.8788 1.99467H69.7935V35.9573C69.7935 37.9484 69.6797 39.7262 69.4522 41.2907C69.2531 42.8267 68.8406 44.3484 68.2148 45.856C67.5891 47.3351 66.7642 48.5724 65.7402 49.568C64.7162 50.5351 63.3508 51.3173 61.6442 51.9147C59.9375 52.512 57.9322 52.8107 55.6282 52.8107Z"/>
</mask>
<path d="M21.9992 52.896C19.0694 52.896 16.4667 52.6116 14.1912 52.0427C11.9441 51.4738 10.0952 50.7058 8.6445 49.7387C7.22228 48.7716 6.04183 47.5769 5.10317 46.1547C4.19294 44.704 3.55294 43.1822 3.18317 41.5893C2.81339 39.9964 2.6285 38.2329 2.6285 36.2987V1.99467H17.8178V34.3787C17.8178 37.9911 18.1876 40.48 18.9272 41.8453C19.6952 43.1822 20.8045 43.8507 22.2552 43.8507C23.0516 43.8507 23.7485 43.7227 24.3458 43.4667C24.9432 43.1822 25.4978 42.7129 26.0098 42.0587C26.5218 41.376 26.9058 40.4089 27.1618 39.1573C27.4463 37.8773 27.5885 36.3271 27.5885 34.5067V1.99467H41.0712V36.5547C41.0712 38.4604 40.9005 40.1813 40.5592 41.7173C40.2463 43.2533 39.6489 44.7467 38.7672 46.1973C37.9138 47.6196 36.7761 48.8142 35.3538 49.7813C33.9601 50.72 32.1254 51.4738 29.8498 52.0427C27.6027 52.6116 24.9858 52.896 21.9992 52.896Z" fill="#006AFF"/>
<path d="M55.6282 52.8107C53.5517 52.8107 51.6744 52.5404 49.9962 52C48.3179 51.4311 47.1802 50.8622 46.5828 50.2933L46.4548 41.4613C47.3935 41.9733 48.1473 42.3147 48.7162 42.4853C49.2851 42.656 50.0246 42.7413 50.9348 42.7413C52.4708 42.7413 53.6797 42.2862 54.5615 41.376C55.4717 40.4658 55.9268 38.9298 55.9268 36.768V5.74933L53.8788 1.99467H69.7935V35.9573C69.7935 37.9484 69.6797 39.7262 69.4522 41.2907C69.2531 42.8267 68.8406 44.3484 68.2148 45.856C67.5891 47.3351 66.7642 48.5724 65.7402 49.568C64.7162 50.5351 63.3508 51.3173 61.6442 51.9147C59.9375 52.512 57.9322 52.8107 55.6282 52.8107Z" fill="#FF0000"/>
<path d="M14.1912 52.0427L13.7003 53.9815L13.7061 53.9829L14.1912 52.0427ZM8.6445 49.7387L7.51988 51.3925L7.52747 51.3977L7.5351 51.4028L8.6445 49.7387ZM5.10317 46.1547L3.40904 47.2177L3.42127 47.2371L3.43395 47.2563L5.10317 46.1547ZM3.18317 41.5893L5.13136 41.1371L3.18317 41.5893ZM2.6285 1.99467V-0.00533295H0.6285V1.99467H2.6285ZM17.8178 1.99467H19.8178V-0.00533295H17.8178V1.99467ZM18.9272 41.8453L17.1686 42.7979L17.1805 42.8199L17.193 42.8416L18.9272 41.8453ZM24.3458 43.4667L25.1337 45.305L25.17 45.2894L25.2057 45.2724L24.3458 43.4667ZM26.0098 42.0587L27.5848 43.2913L27.5975 43.2751L27.6098 43.2587L26.0098 42.0587ZM27.1618 39.1573L25.2095 38.7235L25.2058 38.74L25.2024 38.7565L27.1618 39.1573ZM27.5885 1.99467V-0.00533295H25.5885V1.99467H27.5885ZM41.0712 1.99467H43.0712V-0.00533295H41.0712V1.99467ZM40.5592 41.7173L38.6068 41.2835L38.6029 41.3008L38.5994 41.3181L40.5592 41.7173ZM38.7672 46.1973L37.0581 45.1585L37.0522 45.1683L38.7672 46.1973ZM35.3538 49.7813L36.471 51.4402L36.4785 51.4352L35.3538 49.7813ZM29.8498 52.0427L29.3648 50.1024L29.359 50.1038L29.8498 52.0427ZM21.9992 52.896V50.896C19.1943 50.896 16.7596 50.6232 14.6762 50.1024L14.1912 52.0427L13.7061 53.9829C16.1739 54.5999 18.9445 54.896 21.9992 54.896V52.896ZM14.1912 52.0427L14.682 50.1038C12.587 49.5735 10.9647 48.8818 9.7539 48.0746L8.6445 49.7387L7.5351 51.4028C9.22564 52.5298 11.3011 53.3741 13.7003 53.9815L14.1912 52.0427ZM8.6445 49.7387L9.76912 48.0848C8.56066 47.2631 7.56592 46.2553 6.77239 45.053L5.10317 46.1547L3.43395 47.2563C4.51775 48.8985 5.88389 50.2801 7.51988 51.3925L8.6445 49.7387ZM5.10317 46.1547L6.79729 45.0917C5.99944 43.8201 5.44859 42.5036 5.13136 41.1371L3.18317 41.5893L1.23497 42.0416C1.6573 43.8608 2.38645 45.5879 3.40904 47.2177L5.10317 46.1547ZM3.18317 41.5893L5.13136 41.1371C4.80159 39.7165 4.6285 38.1075 4.6285 36.2987H2.6285H0.6285C0.6285 38.3583 0.825191 40.2764 1.23497 42.0416L3.18317 41.5893ZM2.6285 36.2987H4.6285V1.99467H2.6285H0.6285V36.2987H2.6285ZM2.6285 1.99467V3.99467H17.8178V1.99467V-0.00533295H2.6285V1.99467ZM17.8178 1.99467H15.8178V34.3787H17.8178H19.8178V1.99467H17.8178ZM17.8178 34.3787H15.8178C15.8178 37.9921 16.165 40.9452 17.1686 42.7979L18.9272 41.8453L20.6857 40.8928C20.2102 40.0148 19.8178 37.9901 19.8178 34.3787H17.8178ZM18.9272 41.8453L17.193 42.8416C18.2902 44.7516 20.035 45.8507 22.2552 45.8507V43.8507V41.8507C21.574 41.8507 21.1001 41.6129 20.6614 40.8491L18.9272 41.8453ZM22.2552 43.8507V45.8507C23.263 45.8507 24.238 45.6888 25.1337 45.305L24.3458 43.4667L23.558 41.6284C23.259 41.7565 22.8402 41.8507 22.2552 41.8507V43.8507ZM24.3458 43.4667L25.2057 45.2724C26.1448 44.8252 26.9296 44.1285 27.5848 43.2913L26.0098 42.0587L24.4348 40.826C24.0661 41.2973 23.7415 41.5392 23.486 41.6609L24.3458 43.4667ZM26.0098 42.0587L27.6098 43.2587C28.3652 42.2515 28.8329 40.9679 29.1213 39.5581L27.1618 39.1573L25.2024 38.7565C24.9788 39.8498 24.6785 40.5005 24.4098 40.8587L26.0098 42.0587ZM27.1618 39.1573L29.1142 39.5912C29.4398 38.1258 29.5885 36.4213 29.5885 34.5067H27.5885H25.5885C25.5885 36.233 25.4527 37.6289 25.2095 38.7235L27.1618 39.1573ZM27.5885 34.5067H29.5885V1.99467H27.5885H25.5885V34.5067H27.5885ZM27.5885 1.99467V3.99467H41.0712V1.99467V-0.00533295H27.5885V1.99467ZM41.0712 1.99467H39.0712V36.5547H41.0712H43.0712V1.99467H41.0712ZM41.0712 36.5547H39.0712C39.0712 38.344 38.9107 39.9161 38.6068 41.2835L40.5592 41.7173L42.5115 42.1512C42.8903 40.4466 43.0712 38.5769 43.0712 36.5547H41.0712ZM40.5592 41.7173L38.5994 41.3181C38.3363 42.61 37.83 43.8886 37.0581 45.1585L38.7672 46.1973L40.4762 47.2362C41.4679 45.6047 42.1563 43.8967 42.5189 42.1165L40.5592 41.7173ZM38.7672 46.1973L37.0522 45.1683C36.3536 46.3327 35.4208 47.3172 34.2292 48.1275L35.3538 49.7813L36.4785 51.4352C38.1313 50.3112 39.4741 48.9064 40.4822 47.2263L38.7672 46.1973ZM35.3538 49.7813L34.2366 48.1225C33.0954 48.8911 31.4973 49.5692 29.3648 50.1024L29.8498 52.0427L30.3349 53.9829C32.7534 53.3783 34.8247 52.5489 36.471 51.4402L35.3538 49.7813ZM29.8498 52.0427L29.359 50.1038C27.3107 50.6224 24.8652 50.896 21.9992 50.896V52.896V54.896C25.1065 54.896 27.8948 54.6007 30.3407 53.9815L29.8498 52.0427ZM49.9962 52L49.3541 53.8941L49.3686 53.899L49.3831 53.9037L49.9962 52ZM46.5828 50.2933L44.583 50.3223L44.5952 51.1623L45.2035 51.7416L46.5828 50.2933ZM46.4548 41.4613L47.4125 39.7055L44.4054 38.0653L44.455 41.4903L46.4548 41.4613ZM48.7162 42.4853L48.1415 44.401L48.7162 42.4853ZM54.5615 41.376L53.1473 39.9618L53.1361 39.973L53.125 39.9844L54.5615 41.376ZM55.9268 5.74933H57.9268V5.23935L57.6826 4.79163L55.9268 5.74933ZM53.8788 1.99467V-0.00533295H50.5097L52.123 2.95237L53.8788 1.99467ZM69.7935 1.99467H71.7935V-0.00533295H69.7935V1.99467ZM69.4522 41.2907L67.473 41.0028L67.4708 41.0182L67.4688 41.0336L69.4522 41.2907ZM68.2148 45.856L70.0568 46.6353L70.062 46.6228L68.2148 45.856ZM65.7402 49.568L67.1134 51.022L67.1239 51.0121L67.1343 51.002L65.7402 49.568ZM61.6442 51.9147L62.3049 53.8024L61.6442 51.9147ZM55.6282 52.8107V50.8107C53.7238 50.8107 52.0578 50.5628 50.6092 50.0963L49.9962 52L49.3831 53.9037C51.291 54.5181 53.3796 54.8107 55.6282 54.8107V52.8107ZM49.9962 52L50.6382 50.1059C48.9901 49.5472 48.2193 49.09 47.9621 48.8451L46.5828 50.2933L45.2035 51.7416C46.141 52.6344 47.6458 53.315 49.3541 53.8941L49.9962 52ZM46.5828 50.2933L48.5826 50.2644L48.4546 41.4324L46.4548 41.4613L44.455 41.4903L44.583 50.3223L46.5828 50.2933ZM46.4548 41.4613L45.4971 43.2171C46.4774 43.7518 47.3741 44.1708 48.1415 44.401L48.7162 42.4853L49.2909 40.5697C48.9204 40.4585 48.3096 40.1948 47.4125 39.7055L46.4548 41.4613ZM48.7162 42.4853L48.1415 44.401C48.9681 44.649 49.9218 44.7413 50.9348 44.7413V42.7413V40.7413C50.1274 40.7413 49.602 40.663 49.2909 40.5697L48.7162 42.4853ZM50.9348 42.7413V44.7413C52.8892 44.7413 54.6616 44.147 55.998 42.7676L54.5615 41.376L53.125 39.9844C52.6978 40.4254 52.0525 40.7413 50.9348 40.7413V42.7413ZM54.5615 41.376L55.9757 42.7902C57.4472 41.3187 57.9268 39.1206 57.9268 36.768H55.9268H53.9268C53.9268 38.739 53.4962 39.6129 53.1473 39.9618L54.5615 41.376ZM55.9268 36.768H57.9268V5.74933H55.9268H53.9268V36.768H55.9268ZM55.9268 5.74933L57.6826 4.79163L55.6346 1.03696L53.8788 1.99467L52.123 2.95237L54.171 6.70704L55.9268 5.74933ZM53.8788 1.99467V3.99467H69.7935V1.99467V-0.00533295H53.8788V1.99467ZM69.7935 1.99467H67.7935V35.9573H69.7935H71.7935V1.99467H69.7935ZM69.7935 35.9573H67.7935C67.7935 37.8756 67.6837 39.5544 67.473 41.0028L69.4522 41.2907L71.4313 41.5785C71.6758 39.898 71.7935 38.0213 71.7935 35.9573H69.7935ZM69.4522 41.2907L67.4688 41.0336C67.2935 42.3852 66.9294 43.736 66.3677 45.0892L68.2148 45.856L70.062 46.6228C70.7519 44.9609 71.2126 43.2681 71.4356 41.5478L69.4522 41.2907ZM68.2148 45.856L66.3729 45.0767C65.8382 46.3405 65.1561 47.3464 64.346 48.134L65.7402 49.568L67.1343 51.002C68.3723 49.7985 69.3399 48.3298 70.0568 46.6353L68.2148 45.856ZM65.7402 49.568L64.3669 48.114C63.5965 48.8415 62.4972 49.4972 60.9835 50.0269L61.6442 51.9147L62.3049 53.8024C64.2045 53.1375 65.8358 52.2287 67.1134 51.022L65.7402 49.568ZM61.6442 51.9147L60.9835 50.0269C59.5383 50.5328 57.7659 50.8107 55.6282 50.8107V52.8107V54.8107C58.0984 54.8107 60.3367 54.4912 62.3049 53.8024L61.6442 51.9147Z" fill="black" mask="url(#path-1-outside-1_1_3)"/>
</svg>
